<svg width="140" height="45" viewBox="0 0 100 30" xmlns="http://www.w3.org/2000/svg">
  <g transform="scale(1.6)" fill="#000000">
    <path d="M0.62 18.12l0.1-12.8 1.62-0.1-0.12 12 0.74 0.44 0.66 0.16 0.46-0.24 0.3-2.3-0.06-6.06 0.22-3.9h3.5l-0.26 12.5-0.24 1.02L7.18 20l-3.62-0.04-2.04-0.5zM9.4 5.26l2.56 0.08 2.16 10.14 0.18-1.06-0.58-9.1 2.22-0.04 0.88 0.2-0.4 14.4-1.78 0.24-1.78-0.1-1.18-8.78-0.42-1.3 0.06 10.04-2.06 0.18-0.1-8.58zm9 3.62l3.2 0.08-0.16 2.5 0.24 5.08-0.14 3.38-0.28 0.04-2.8-0.06-0.12-0.92-0.04-5.36zm0.12-3.9l3.02 0.04 0.14 0.78v1.34l-0.08 0.72-3.2 0.02-0.1-1.3-0.04-1.4zm10.64 0.54l0.52 0.86v2.44l-0.06 1.24-2.68-0.14V8.08l-1.32 0.02-0.22 0.56 0.22 2.72 2.06 0.12 2 0.24 0.06 2.54v1.8l-0.26 3.14-1.8 0.88-2.64-0.12-1.2-0.48-0.6-0.46-0.28-1.46 0.1-2.48 0.1-0.8 0.68 0.04 1.56 0.18v2.14l1.88 0.22 0.06-3.6-3.98-0.22-0.16-4.4-0.04-2.88 0.66-0.48c0.46-0.02 0.86-0.06 1.24-0.1 0.64-0.06 1.28-0.1 1.42-0.1 0.1 0 0.46 0.02 0.8 0.04l0.64 0.04zm3.94 7.86l2-0.1-0.06-2.78-0.5-1.94-1.24-0.1zm0.54-8.18h1.28l2.62 0.18 0.54 7.26 0.2 7.24-0.6 0.04-2.26 0.1h-0.24l-0.18-4.5-1.88-0.12-0.5 4.6-1.96 0.06 0.64-7.48 0.58-4.28 0.42-3zm9.14 0v12.2l1.5 0.28 1.46 0.04-0.14 2.26h-1.14l-3.8 0.14-1.26-0.04-0.26-13.28 0.12-1.44zm3.72 14.72-0.04-6.94 0.08-0.74-0.04-0.74 0.1-4.42 0.18-1.72 6.5 0.12 0.1 3.9h-4.26l-0.08 2.5 3.26-0.06v0.22l0.1 1.7-3.04 0.06 0.1 2.96 4.06 0.2v3.08z"/>
  </g>
</svg>
