
<svg width="160" height="50" viewBox="0 0 160 50" xmlns="http://www.w3.org/2000/svg">
  <!-- UNISALE text - compact for navbar with full text visible -->
  <g transform="matrix(1.8,0,0,1.8,10,5)" fill="#000000">
    <path d="M0.62 18.12 l0.1 -12.8 l0 0 l1.62 -0.1 l-0.12 12 l0.74 0.44 l0.66 0.16 l0.46 -0.24 l0.3 -2.3 l-0.06 -6.06 l0.22 -3.9 l3.5 0 l-0.26 12.5 l-0.24 1.02 l-0.36 1.16 l-3.62 -0.04 l-2.04 -0.5 z M9.4 5.26 l2.56 0.08 l2.16 10.14 l0.18 -1.06 l-0.58 -9.1 l2.22 -0.04 l0.88 0.2 l-0.4 14.4 l-1.78 0.24 l-1.78 -0.1 l-1.18 -8.78 l-0.42 -1.3 l0.06 10.04 l-2.06 0.18 l-0.1 -8.58 z M18.4 8.88 l3.2 0.08 l-0.16 2.5 l0.24 5.08 l-0.14 3.38 l-0.28 0.04 l-2.8 -0.06 l-0.12 -0.92 l-0.04 -5.36 z M18.52 4.98 l3.02 0.04 l0.14 0.78 l0 1.34 l-0.08 0.72 l-3.2 0.02 l-0.1 -1.3 l-0.04 -1.4 z M29.159999999999997 5.52 l0.52 0.86 l0 2.44 l-0.06 1.24 l-2.68 -0.14 l0 -0.78 l0 -1.06 l-1.32 0.02 l-0.22 0.56 l0.22 2.72 l2.06 0.12 l2 0.24 l0.06 2.54 l0 1.8 l-0.26 3.14 l-1.8 0.88 l-2.64 -0.12 l-1.2 -0.48 l-0.6 -0.46 l-0.28 -1.46 l0.1 -2.48 l0.1 -0.8 l0.68 0.04 l1.56 0.18 l0 0.6 l0 0.66 l0 0.34 l0 0.54 l1.88 0.22 l0.06 -3.6 l-3.98 -0.22 l-0.16 -4.4 l-0.04 -2.88 l0.66 -0.48 c0.46 -0.02 0.86 -0.06 1.24 -0.1 c0.64 -0.06 1.28 -0.1 1.42 -0.1 c0.1 0 0.46 0.02 0.8 0.04 l0.64 0.04 z M33.1 13.379999999999999 l2 -0.1 l-0.06 -2.78 l-0.5 -1.94 l-1.24 -0.1 z M33.64 5.199999999999999 l1.28 0 l2.62 0.18 l0.54 7.26 l0.2 7.24 l-0.6 0.04 l-2.26 0.1 l-0.24 0 l-0.18 -4.5 l-1.88 -0.12 l-0.5 4.6 l-1.96 0.06 l0.64 -7.48 l0.58 -4.28 l0.42 -3 z M42.78 5.199999999999999 l0 12.2 l1.5 0.28 l1.46 0.04 l-0.14 2.26 l-1.14 0 l-3.8 0.14 l-1.26 -0.04 l-0.26 -13.28 l0.12 -1.44 z M46.5 19.92 l-0.04 -6.94 l0.08 -0.74 l-0.04 -0.74 l0.1 -4.42 l0.18 -1.72 l6.5 0.12 l0.1 3.9 l-4.26 0 l-0.08 2.5 l3.26 -0.06 l0 0.22 l0.1 1.7 l-3.04 0.06 l0.1 2.96 l4.06 0.2 l0 3.08 z"></path>
  </g>
</svg>
